<mxfile host="app.diagrams.net" modified="2023-01-26T04:47:08.360Z" agent="5.0 (Windows NT 10.0; Win64; x64) AppleWebKit/537.36 (KHTML, like Gecko) Chrome/109.0.0.0 Safari/537.36 Edg/109.0.1518.61" etag="08PkRHHbVfzmGlp58l9B" version="20.8.11" type="github">
  <diagram name="第 1 页" id="aDx187LjUbZ5LG9SXjxT">
    <mxGraphModel dx="1002" dy="581" grid="1" gridSize="10" guides="1" tooltips="1" connect="1" arrows="1" fold="1" page="1" pageScale="1" pageWidth="827" pageHeight="1169" math="0" shadow="0">
      <root>
        <mxCell id="0" />
        <mxCell id="1" parent="0" />
        <mxCell id="L1z6QQYLULhIbva1nvy_-2" value="" style="rounded=0;whiteSpace=wrap;html=1;direction=south;fillColor=default;shadow=0;glass=0;" vertex="1" parent="1">
          <mxGeometry x="185" y="30" width="375" height="380" as="geometry" />
        </mxCell>
        <mxCell id="L1z6QQYLULhIbva1nvy_-5" value="&lt;h5&gt;&lt;i&gt;用户空间&lt;/i&gt;&lt;/h5&gt;" style="text;strokeColor=none;fillColor=none;html=1;fontSize=24;fontStyle=1;verticalAlign=middle;align=center;" vertex="1" parent="1">
          <mxGeometry x="50" y="200" width="100" height="40" as="geometry" />
        </mxCell>
        <mxCell id="L1z6QQYLULhIbva1nvy_-6" value="" style="shape=curlyBracket;whiteSpace=wrap;html=1;rounded=1;labelPosition=left;verticalLabelPosition=middle;align=right;verticalAlign=middle;" vertex="1" parent="1">
          <mxGeometry x="150" y="30" width="30" height="380" as="geometry" />
        </mxCell>
        <mxCell id="L1z6QQYLULhIbva1nvy_-10" value="地址oxffffffff" style="text;strokeColor=none;fillColor=none;html=1;fontSize=10;fontStyle=1;verticalAlign=middle;align=center;" vertex="1" parent="1">
          <mxGeometry x="60" y="20" width="100" height="40" as="geometry" />
        </mxCell>
        <mxCell id="L1z6QQYLULhIbva1nvy_-11" value="" style="rounded=1;whiteSpace=wrap;html=1;strokeWidth=2;fillWeight=4;hachureGap=8;hachureAngle=45;sketch=1;fontSize=10;" vertex="1" parent="1">
          <mxGeometry x="190" y="412.5" width="370" height="120" as="geometry" />
        </mxCell>
        <mxCell id="L1z6QQYLULhIbva1nvy_-12" value="" style="shape=curlyBracket;whiteSpace=wrap;html=1;rounded=1;labelPosition=left;verticalLabelPosition=middle;align=right;verticalAlign=middle;fontSize=10;" vertex="1" parent="1">
          <mxGeometry x="155" y="410" width="20" height="120" as="geometry" />
        </mxCell>
        <mxCell id="L1z6QQYLULhIbva1nvy_-13" value="内核空间" style="text;strokeColor=none;fillColor=none;html=1;fontSize=20;fontStyle=1;verticalAlign=middle;align=center;" vertex="1" parent="1">
          <mxGeometry x="55" y="450" width="100" height="40" as="geometry" />
        </mxCell>
        <mxCell id="L1z6QQYLULhIbva1nvy_-21" value="&lt;font style=&quot;font-size: 14px;&quot;&gt;压入nbytes&lt;/font&gt;" style="verticalLabelPosition=middle;verticalAlign=middle;html=1;shape=mxgraph.basic.patternFillRect;fillStyle=diagRev;step=5;fillStrokeWidth=0.2;fillStrokeColor=#dddddd;fontSize=20;labelPosition=center;align=center;" vertex="1" parent="1">
          <mxGeometry x="290" y="330" width="210" height="30" as="geometry" />
        </mxCell>
        <mxCell id="L1z6QQYLULhIbva1nvy_-22" value="&lt;span style=&quot;font-size: 14px;&quot;&gt;压入&amp;amp;buffer&lt;/span&gt;" style="verticalLabelPosition=middle;verticalAlign=middle;html=1;shape=mxgraph.basic.patternFillRect;fillStyle=diagRev;step=5;fillStrokeWidth=0.2;fillStrokeColor=#dddddd;fontSize=20;labelPosition=center;align=center;" vertex="1" parent="1">
          <mxGeometry x="290" y="302.5" width="210" height="30" as="geometry" />
        </mxCell>
        <mxCell id="L1z6QQYLULhIbva1nvy_-23" value="&lt;span style=&quot;font-size: 14px;&quot;&gt;压入fd&lt;/span&gt;" style="verticalLabelPosition=middle;verticalAlign=middle;html=1;shape=mxgraph.basic.patternFillRect;fillStyle=diagRev;step=5;fillStrokeWidth=0.2;fillStrokeColor=#dddddd;fontSize=20;labelPosition=center;align=center;" vertex="1" parent="1">
          <mxGeometry x="290" y="277.5" width="210" height="25" as="geometry" />
        </mxCell>
        <mxCell id="L1z6QQYLULhIbva1nvy_-24" value="1" style="text;strokeColor=none;fillColor=none;html=1;fontSize=14;fontStyle=1;verticalAlign=middle;align=center;" vertex="1" parent="1">
          <mxGeometry x="220" y="325" width="100" height="40" as="geometry" />
        </mxCell>
        <mxCell id="L1z6QQYLULhIbva1nvy_-26" value="2" style="text;strokeColor=none;fillColor=none;html=1;fontSize=14;fontStyle=1;verticalAlign=middle;align=center;" vertex="1" parent="1">
          <mxGeometry x="220" y="295" width="100" height="40" as="geometry" />
        </mxCell>
        <mxCell id="L1z6QQYLULhIbva1nvy_-27" value="3" style="text;strokeColor=none;fillColor=none;html=1;fontSize=14;fontStyle=1;verticalAlign=middle;align=center;" vertex="1" parent="1">
          <mxGeometry x="220" y="270" width="100" height="40" as="geometry" />
        </mxCell>
        <mxCell id="L1z6QQYLULhIbva1nvy_-28" value="&lt;span style=&quot;font-size: 14px;&quot;&gt;调用read&lt;/span&gt;" style="verticalLabelPosition=middle;verticalAlign=middle;html=1;shape=mxgraph.basic.patternFillRect;fillStyle=diagRev;step=5;fillStrokeWidth=0.2;fillStrokeColor=#dddddd;fontSize=20;labelPosition=center;align=center;" vertex="1" parent="1">
          <mxGeometry x="290" y="245" width="210" height="30" as="geometry" />
        </mxCell>
        <mxCell id="L1z6QQYLULhIbva1nvy_-29" value="4" style="text;strokeColor=none;fillColor=none;html=1;fontSize=14;fontStyle=1;verticalAlign=middle;align=center;" vertex="1" parent="1">
          <mxGeometry x="230" y="175" width="100" height="40" as="geometry" />
        </mxCell>
        <mxCell id="L1z6QQYLULhIbva1nvy_-33" value="&lt;span style=&quot;font-size: 14px;&quot;&gt;增加SP&lt;/span&gt;" style="verticalLabelPosition=middle;verticalAlign=middle;html=1;shape=mxgraph.basic.patternFillRect;fillStyle=diagRev;step=5;fillStrokeWidth=0.2;fillStrokeColor=#dddddd;fontSize=20;labelPosition=center;align=center;" vertex="1" parent="1">
          <mxGeometry x="290" y="215" width="210" height="30" as="geometry" />
        </mxCell>
        <mxCell id="L1z6QQYLULhIbva1nvy_-36" value="&lt;span style=&quot;font-size: 14px;&quot;&gt;返回到调用者&lt;/span&gt;" style="verticalLabelPosition=middle;verticalAlign=middle;html=1;shape=mxgraph.basic.patternFillRect;fillStyle=diagRev;step=5;fillStrokeWidth=0.2;fillStrokeColor=#dddddd;fontSize=20;labelPosition=center;align=center;" vertex="1" parent="1">
          <mxGeometry x="290" y="50" width="210" height="30" as="geometry" />
        </mxCell>
        <mxCell id="L1z6QQYLULhIbva1nvy_-37" value="&lt;span style=&quot;font-size: 14px;&quot;&gt;把用于read的代码放入寄存器中&lt;/span&gt;" style="verticalLabelPosition=middle;verticalAlign=middle;html=1;shape=mxgraph.basic.patternFillRect;fillStyle=diagRev;step=5;fillStrokeWidth=0.2;fillStrokeColor=#dddddd;fontSize=20;labelPosition=center;align=center;" vertex="1" parent="1">
          <mxGeometry x="290" y="110" width="210" height="30" as="geometry" />
        </mxCell>
        <mxCell id="L1z6QQYLULhIbva1nvy_-39" value="&lt;span style=&quot;font-size: 14px;&quot;&gt;进入内核&lt;/span&gt;" style="verticalLabelPosition=middle;verticalAlign=middle;html=1;shape=mxgraph.basic.patternFillRect;fillStyle=diagRev;step=5;fillStrokeWidth=0.2;fillStrokeColor=#dddddd;fontSize=20;labelPosition=center;align=center;" vertex="1" parent="1">
          <mxGeometry x="290" y="80" width="210" height="30" as="geometry" />
        </mxCell>
        <mxCell id="L1z6QQYLULhIbva1nvy_-45" value="5" style="text;strokeColor=none;fillColor=none;html=1;fontSize=14;fontStyle=1;verticalAlign=middle;align=center;" vertex="1" parent="1">
          <mxGeometry x="230" y="110" width="100" height="40" as="geometry" />
        </mxCell>
        <mxCell id="L1z6QQYLULhIbva1nvy_-51" value="" style="curved=1;endArrow=classic;html=1;rounded=0;fontSize=14;entryX=0.8;entryY=0.75;entryDx=0;entryDy=0;entryPerimeter=0;" edge="1" parent="1" target="L1z6QQYLULhIbva1nvy_-45">
          <mxGeometry width="50" height="50" relative="1" as="geometry">
            <mxPoint x="290" y="265" as="sourcePoint" />
            <mxPoint x="290" y="175" as="targetPoint" />
            <Array as="points">
              <mxPoint x="250" y="255" />
              <mxPoint x="260" y="205" />
            </Array>
          </mxGeometry>
        </mxCell>
        <mxCell id="L1z6QQYLULhIbva1nvy_-72" style="edgeStyle=orthogonalEdgeStyle;rounded=0;orthogonalLoop=1;jettySize=auto;html=1;exitX=1;exitY=0.5;exitDx=0;exitDy=0;entryX=0;entryY=0.5;entryDx=0;entryDy=0;strokeColor=default;fontSize=14;endSize=5;" edge="1" parent="1" source="L1z6QQYLULhIbva1nvy_-53" target="L1z6QQYLULhIbva1nvy_-54">
          <mxGeometry relative="1" as="geometry" />
        </mxCell>
        <mxCell id="L1z6QQYLULhIbva1nvy_-53" value="分派" style="shape=ext;double=1;whiteSpace=wrap;html=1;aspect=fixed;fontSize=14;" vertex="1" parent="1">
          <mxGeometry x="235" y="442.5" width="55" height="55" as="geometry" />
        </mxCell>
        <mxCell id="L1z6QQYLULhIbva1nvy_-69" style="edgeStyle=orthogonalEdgeStyle;rounded=0;orthogonalLoop=1;jettySize=auto;html=1;exitX=1;exitY=0.5;exitDx=0;exitDy=0;strokeColor=default;fontSize=14;endSize=5;" edge="1" parent="1" source="L1z6QQYLULhIbva1nvy_-54" target="L1z6QQYLULhIbva1nvy_-55">
          <mxGeometry relative="1" as="geometry" />
        </mxCell>
        <mxCell id="L1z6QQYLULhIbva1nvy_-54" value="" style="ellipse;whiteSpace=wrap;html=1;strokeWidth=2;fillWeight=2;hachureGap=8;fillColor=#333333;fillStyle=dots;sketch=1;fontSize=14;" vertex="1" parent="1">
          <mxGeometry x="320" y="442.5" width="120" height="60" as="geometry" />
        </mxCell>
        <mxCell id="L1z6QQYLULhIbva1nvy_-55" value="系统调用处理程序" style="whiteSpace=wrap;html=1;aspect=fixed;fontSize=14;fillColor=none;" vertex="1" parent="1">
          <mxGeometry x="465" y="432.5" width="80" height="80" as="geometry" />
        </mxCell>
        <mxCell id="L1z6QQYLULhIbva1nvy_-60" value="" style="curved=1;endArrow=none;html=1;rounded=0;fontSize=14;strokeColor=none;" edge="1" parent="1">
          <mxGeometry width="50" height="50" relative="1" as="geometry">
            <mxPoint x="150" y="380" as="sourcePoint" />
            <mxPoint x="112" y="140" as="targetPoint" />
            <Array as="points">
              <mxPoint x="60" y="350" />
              <mxPoint x="40" y="220" />
              <mxPoint x="100" y="150" />
            </Array>
          </mxGeometry>
        </mxCell>
        <mxCell id="L1z6QQYLULhIbva1nvy_-65" value="" style="curved=1;endArrow=classic;html=1;rounded=0;strokeColor=default;fontSize=14;endSize=5;entryX=0.25;entryY=0;entryDx=0;entryDy=0;" edge="1" parent="1" target="L1z6QQYLULhIbva1nvy_-53">
          <mxGeometry width="50" height="50" relative="1" as="geometry">
            <mxPoint x="290" y="90" as="sourcePoint" />
            <mxPoint x="290" y="400" as="targetPoint" />
            <Array as="points">
              <mxPoint x="130" y="270" />
            </Array>
          </mxGeometry>
        </mxCell>
        <mxCell id="L1z6QQYLULhIbva1nvy_-67" value="6" style="text;strokeColor=none;fillColor=none;html=1;fontSize=14;fontStyle=1;verticalAlign=middle;align=center;" vertex="1" parent="1">
          <mxGeometry x="160" y="250" width="100" height="40" as="geometry" />
        </mxCell>
        <mxCell id="L1z6QQYLULhIbva1nvy_-73" value="7" style="text;strokeColor=none;fillColor=none;html=1;fontSize=14;fontStyle=1;verticalAlign=middle;align=center;" vertex="1" parent="1">
          <mxGeometry x="254" y="432.5" width="100" height="40" as="geometry" />
        </mxCell>
        <mxCell id="L1z6QQYLULhIbva1nvy_-75" value="8" style="text;strokeColor=none;fillColor=none;html=1;fontSize=14;fontStyle=1;verticalAlign=middle;align=center;" vertex="1" parent="1">
          <mxGeometry x="400" y="432.5" width="100" height="40" as="geometry" />
        </mxCell>
        <mxCell id="L1z6QQYLULhIbva1nvy_-76" value="" style="shape=curlyBracket;whiteSpace=wrap;html=1;rounded=1;flipH=1;labelPosition=right;verticalLabelPosition=middle;align=left;verticalAlign=middle;shadow=0;glass=0;sketch=0;fontSize=14;fillColor=default;gradientColor=default;" vertex="1" parent="1">
          <mxGeometry x="590" y="245" width="20" height="115" as="geometry" />
        </mxCell>
        <mxCell id="L1z6QQYLULhIbva1nvy_-79" value="" style="edgeStyle=orthogonalEdgeStyle;rounded=0;orthogonalLoop=1;jettySize=auto;html=1;strokeColor=default;fontSize=14;endSize=5;" edge="1" parent="1" source="L1z6QQYLULhIbva1nvy_-77" target="L1z6QQYLULhIbva1nvy_-76">
          <mxGeometry relative="1" as="geometry" />
        </mxCell>
        <mxCell id="L1z6QQYLULhIbva1nvy_-77" value="&lt;h5&gt;&lt;i&gt;调用read的用户程序&lt;/i&gt;&lt;/h5&gt;" style="text;strokeColor=none;fillColor=none;html=1;fontSize=24;fontStyle=1;verticalAlign=middle;align=center;" vertex="1" parent="1">
          <mxGeometry x="660" y="282.5" width="100" height="40" as="geometry" />
        </mxCell>
        <mxCell id="L1z6QQYLULhIbva1nvy_-78" value="" style="shape=curlyBracket;whiteSpace=wrap;html=1;rounded=1;flipH=1;labelPosition=right;verticalLabelPosition=middle;align=left;verticalAlign=middle;shadow=0;glass=0;sketch=0;fontSize=14;fillColor=default;gradientColor=default;" vertex="1" parent="1">
          <mxGeometry x="590" y="80" width="20" height="60" as="geometry" />
        </mxCell>
        <mxCell id="L1z6QQYLULhIbva1nvy_-81" value="&lt;h5&gt;&lt;i&gt;库read过程&lt;/i&gt;&lt;/h5&gt;" style="text;strokeColor=none;fillColor=none;html=1;fontSize=24;fontStyle=1;verticalAlign=middle;align=center;" vertex="1" parent="1">
          <mxGeometry x="630" y="90" width="100" height="40" as="geometry" />
        </mxCell>
        <mxCell id="L1z6QQYLULhIbva1nvy_-84" value="" style="curved=1;endArrow=classic;html=1;rounded=0;strokeColor=default;fontSize=14;endSize=5;exitX=1;exitY=0.5;exitDx=0;exitDy=0;entryX=1;entryY=0.5;entryDx=0;entryDy=0;entryPerimeter=0;" edge="1" parent="1" source="L1z6QQYLULhIbva1nvy_-55" target="L1z6QQYLULhIbva1nvy_-36">
          <mxGeometry width="50" height="50" relative="1" as="geometry">
            <mxPoint x="620" y="470" as="sourcePoint" />
            <mxPoint x="590" y="190" as="targetPoint" />
            <Array as="points">
              <mxPoint x="600" y="280" />
              <mxPoint x="560" y="160" />
              <mxPoint x="540" y="120" />
            </Array>
          </mxGeometry>
        </mxCell>
        <mxCell id="L1z6QQYLULhIbva1nvy_-85" value="9" style="text;strokeColor=none;fillColor=none;html=1;fontSize=14;fontStyle=1;verticalAlign=middle;align=center;" vertex="1" parent="1">
          <mxGeometry x="545" y="190" width="100" height="40" as="geometry" />
        </mxCell>
        <mxCell id="L1z6QQYLULhIbva1nvy_-86" value="" style="curved=1;endArrow=classic;html=1;rounded=0;strokeColor=default;fontSize=14;endSize=5;exitX=1;exitY=0.5;exitDx=0;exitDy=0;exitPerimeter=0;" edge="1" parent="1" source="L1z6QQYLULhIbva1nvy_-39">
          <mxGeometry width="50" height="50" relative="1" as="geometry">
            <mxPoint x="550" y="180" as="sourcePoint" />
            <mxPoint x="500" y="230" as="targetPoint" />
            <Array as="points">
              <mxPoint x="520" y="170" />
              <mxPoint x="520" y="230" />
            </Array>
          </mxGeometry>
        </mxCell>
        <mxCell id="L1z6QQYLULhIbva1nvy_-87" value="10" style="text;strokeColor=none;fillColor=none;html=1;fontSize=14;fontStyle=1;verticalAlign=middle;align=center;" vertex="1" parent="1">
          <mxGeometry x="455" y="160" width="100" height="40" as="geometry" />
        </mxCell>
        <mxCell id="L1z6QQYLULhIbva1nvy_-88" value="11" style="text;strokeColor=none;fillColor=none;html=1;fontSize=14;fontStyle=1;verticalAlign=middle;align=center;" vertex="1" parent="1">
          <mxGeometry x="414" y="210" width="100" height="40" as="geometry" />
        </mxCell>
      </root>
    </mxGraphModel>
  </diagram>
</mxfile>
